<?xml version="1.0" encoding="UTF-8" ?>
<!DOCTYPE svg PUBLIC "-//W3C//DTD SVG 1.1//EN" "http://www.w3.org/Graphics/SVG/1.1/DTD/svg11.dtd">
<svg width="310pt" height="267pt" viewBox="0 0 310 267" version="1.1" xmlns="http://www.w3.org/2000/svg">
<g id="#ffffffff">
<path fill="#ffffff" opacity="1.00" d=" M 142.53 30.72 C 165.54 28.07 189.48 33.37 209.02 45.87 C 227.08 57.34 241.70 74.40 249.52 94.39 C 259.00 118.03 259.60 145.39 250.17 169.15 C 238.45 200.85 209.95 225.76 176.89 232.89 C 145.80 240.32 111.56 231.57 87.44 210.69 C 69.13 195.08 56.60 172.84 52.84 149.07 C 49.43 126.46 53.12 102.49 64.76 82.66 C 80.34 54.20 110.30 34.29 142.53 30.72 M 133.69 50.49 C 127.40 59.15 124.03 69.52 121.95 79.92 C 115.99 108.73 117.10 138.34 118.72 167.53 C 113.18 142.09 111.69 115.99 111.56 90.02 C 111.21 81.48 112.14 72.80 110.36 64.39 C 109.69 60.73 105.90 59.47 102.65 59.21 C 99.96 60.91 98.45 63.76 97.74 66.79 C 96.06 74.08 95.14 81.53 94.81 89.00 C 93.76 112.45 95.69 136.01 100.06 159.06 C 103.77 175.67 108.29 192.71 118.63 206.56 C 121.21 209.69 125.50 210.24 129.28 210.64 C 129.22 203.04 128.15 195.49 127.02 187.99 C 123.26 159.86 121.79 131.28 124.98 103.03 C 126.31 86.51 130.25 69.90 138.99 55.66 C 138.50 89.37 133.96 123.37 139.68 156.88 C 140.93 163.59 141.98 170.99 146.77 176.22 C 149.58 179.42 154.13 179.15 158.00 179.32 C 157.62 155.52 157.62 131.49 162.35 108.05 C 165.04 94.84 169.01 81.71 175.87 70.02 C 178.05 66.36 180.96 63.22 184.00 60.27 C 184.15 74.07 181.39 87.64 179.35 101.22 C 175.41 125.86 171.70 150.84 173.80 175.85 C 174.66 185.66 176.70 195.63 181.93 204.11 C 185.90 209.97 193.90 213.14 200.68 210.75 C 204.69 208.97 205.13 204.09 206.43 200.45 C 204.90 200.07 203.37 199.68 201.85 199.31 C 199.68 201.90 197.69 204.71 194.81 206.58 C 190.41 191.14 189.86 174.91 190.92 158.99 C 192.16 133.51 196.89 108.37 198.50 82.92 C 198.87 75.24 198.68 67.23 195.59 60.06 C 192.45 54.27 184.12 52.03 178.59 55.73 C 173.57 59.02 170.49 64.41 167.53 69.48 C 160.51 82.41 157.25 96.96 154.64 111.33 C 154.18 95.49 155.44 79.60 153.77 63.81 C 153.04 58.25 151.22 51.97 145.99 49.05 C 142.25 46.76 136.40 46.50 133.69 50.49 M 204.50 60.50 C 199.36 64.42 201.49 71.73 202.09 77.19 C 205.87 73.12 210.07 69.42 213.28 64.85 C 211.99 61.58 208.03 57.97 204.50 60.50 M 86.76 71.67 C 83.75 77.51 87.81 83.60 91.65 87.87 C 93.60 81.00 94.32 73.87 94.36 66.74 C 91.52 67.72 87.84 68.41 86.76 71.67 M 208.85 73.86 C 201.00 83.49 201.24 96.75 202.20 108.48 C 207.22 104.01 212.25 99.56 217.49 95.35 C 221.86 91.77 226.39 87.05 226.48 81.04 C 226.47 72.80 214.48 67.17 208.85 73.86 M 81.27 84.41 C 77.05 86.24 75.73 91.38 76.11 95.59 C 74.72 94.95 73.34 94.30 71.96 93.65 C 71.16 95.18 70.36 96.70 69.54 98.22 C 70.48 101.84 73.13 104.49 76.01 106.70 C 76.12 103.36 76.25 100.01 76.15 96.67 C 79.15 108.15 86.19 117.94 93.18 127.31 C 92.68 119.89 92.25 112.46 92.10 105.02 C 91.66 98.66 91.44 91.71 87.41 86.42 C 86.09 84.42 83.52 83.50 81.27 84.41 M 223.33 93.27 C 227.29 92.81 232.10 93.28 235.03 90.03 C 235.00 87.98 233.23 86.92 231.76 85.87 C 228.01 87.08 225.34 90.02 223.33 93.27 M 215.80 101.84 C 208.67 111.25 205.92 123.85 196.07 131.19 C 203.41 131.02 210.30 128.22 216.66 124.76 C 224.63 120.53 232.97 115.85 238.08 108.15 C 240.98 104.04 239.29 97.31 234.43 95.55 C 227.74 92.19 219.97 96.42 215.80 101.84 M 69.14 106.17 C 66.12 109.17 66.09 113.96 68.43 117.37 C 73.94 126.51 84.77 130.08 94.48 132.81 C 89.75 127.54 86.37 121.31 82.49 115.44 C 79.44 110.85 75.18 105.95 69.14 106.17 M 204.38 109.65 C 200.75 112.93 199.26 117.66 198.54 122.34 C 203.04 120.37 206.25 116.26 208.36 111.94 C 207.34 110.67 205.98 109.90 204.38 109.65 M 227.89 121.53 C 234.07 121.76 240.71 122.21 246.15 118.68 C 244.70 116.46 242.93 113.67 240.02 113.48 C 234.98 114.13 231.21 118.00 227.89 121.53 M 63.28 123.58 C 66.20 125.80 69.96 125.39 73.40 125.54 C 71.02 122.24 68.11 119.32 64.56 117.28 C 63.78 119.30 63.26 121.40 63.28 123.58 M 194.38 133.70 C 205.29 138.62 217.07 141.28 228.90 142.73 C 233.74 143.17 239.11 143.91 243.56 141.47 C 247.18 138.95 246.55 133.59 244.90 130.05 C 242.60 124.81 236.27 123.36 231.07 123.68 C 218.18 124.43 207.36 133.25 194.38 133.70 M 63.58 131.51 C 61.94 133.91 63.41 136.99 65.29 138.76 C 69.46 141.86 75.08 141.91 79.99 141.01 C 85.44 139.93 91.35 138.90 95.43 134.79 C 87.62 132.39 80.17 128.62 71.98 127.62 C 68.73 127.06 65.12 128.52 63.58 131.51 M 193.85 137.92 C 198.06 143.43 203.51 147.89 207.28 153.75 C 211.92 160.78 215.19 168.82 221.25 174.85 C 223.20 176.92 226.21 177.87 229.01 177.56 C 232.26 176.56 234.22 173.22 234.82 170.05 C 235.15 164.52 232.31 159.27 228.50 155.45 C 219.46 145.74 206.69 140.37 193.85 137.92 M 71.34 147.27 C 68.40 149.04 64.83 152.51 66.78 156.23 C 68.67 161.15 75.32 162.21 79.30 159.25 C 86.07 153.71 91.01 146.35 95.36 138.84 C 86.92 140.10 78.78 143.14 71.34 147.27 M 61.73 143.43 C 63.43 144.71 65.21 145.89 67.03 147.01 C 70.04 145.94 73.00 144.76 75.81 143.25 C 71.23 141.96 66.16 141.18 61.73 143.43 M 94.85 142.87 C 90.32 153.40 80.22 160.74 77.34 172.10 C 76.42 175.39 76.38 180.23 80.18 181.67 C 84.43 182.94 88.06 179.36 90.01 175.99 C 95.24 165.84 95.98 154.06 94.85 142.87 M 193.98 144.13 C 197.21 158.72 194.92 174.09 199.51 188.44 C 200.59 191.89 202.09 195.47 204.93 197.84 C 207.99 200.50 213.00 199.43 215.31 196.29 C 218.96 191.60 218.59 185.17 217.14 179.72 C 214.89 172.06 211.05 164.94 206.48 158.43 C 203.05 153.08 198.99 148.08 193.98 144.13 M 221.72 145.02 C 227.08 150.55 231.69 156.94 238.21 161.23 C 243.63 160.18 244.35 152.68 240.53 149.45 C 235.59 144.66 228.21 144.07 221.72 145.02 M 69.42 165.33 C 70.54 166.84 71.64 168.36 72.74 169.89 C 76.58 168.54 78.44 164.82 80.11 161.42 C 76.51 162.63 72.97 163.98 69.42 165.33 M 97.52 168.93 C 94.52 176.46 92.33 184.74 93.68 192.88 C 94.30 195.86 95.09 199.37 98.21 200.69 C 100.89 202.67 104.50 201.95 106.84 199.79 C 107.51 195.55 107.17 191.21 105.69 187.17 C 103.47 180.89 100.97 174.65 97.52 168.93 M 218.99 176.13 C 219.14 180.92 219.53 185.70 220.13 190.46 C 222.65 189.85 225.77 188.99 226.29 185.99 C 227.58 181.06 222.28 178.47 218.99 176.13 M 84.58 189.23 C 86.25 189.45 88.35 190.37 89.60 188.70 C 91.91 185.34 91.88 181.09 92.23 177.19 C 88.37 180.11 83.87 183.77 84.58 189.23 Z" />
</g>
<g id="#66813aff">
<path fill="#66813a" opacity="1.00" d=" M 138.47 22.64 C 161.40 19.40 185.45 23.26 205.91 34.22 C 238.12 50.78 260.93 84.05 264.79 120.06 C 267.52 143.39 262.49 167.52 250.95 187.95 C 242.18 203.22 229.76 216.33 215.07 226.03 C 195.35 238.92 171.46 245.39 147.93 243.91 C 126.56 242.77 105.59 235.18 88.43 222.41 C 67.46 207.09 52.14 184.14 46.21 158.84 C 41.27 138.79 42.22 117.35 48.73 97.77 C 56.40 74.28 72.28 53.58 92.97 40.08 C 106.61 31.03 122.25 24.94 138.47 22.64 M 142.53 30.72 C 110.30 34.29 80.34 54.20 64.76 82.66 C 53.12 102.49 49.43 126.46 52.84 149.07 C 56.60 172.84 69.13 195.08 87.44 210.69 C 111.56 231.57 145.80 240.32 176.89 232.89 C 209.95 225.76 238.45 200.85 250.17 169.15 C 259.60 145.39 259.00 118.03 249.52 94.39 C 241.70 74.40 227.08 57.34 209.02 45.87 C 189.48 33.37 165.54 28.07 142.53 30.72 Z" />
<path fill="#66813a" opacity="1.00" d=" M 208.85 73.86 C 214.48 67.17 226.47 72.80 226.48 81.04 C 226.39 87.05 221.86 91.77 217.49 95.35 C 212.25 99.56 207.22 104.01 202.20 108.48 C 201.24 96.75 201.00 83.49 208.85 73.86 Z" />
<path fill="#66813a" opacity="1.00" d=" M 215.80 101.84 C 219.97 96.42 227.74 92.19 234.43 95.55 C 239.29 97.31 240.98 104.04 238.08 108.15 C 232.97 115.85 224.63 120.53 216.66 124.76 C 210.30 128.22 203.41 131.02 196.07 131.19 C 205.92 123.85 208.67 111.25 215.80 101.84 Z" />
<path fill="#66813a" opacity="1.00" d=" M 63.28 123.58 C 63.26 121.40 63.78 119.30 64.56 117.28 C 68.11 119.32 71.02 122.24 73.40 125.54 C 69.96 125.39 66.20 125.80 63.28 123.58 Z" />
<path fill="#66813a" opacity="1.00" d=" M 71.34 147.27 C 78.78 143.14 86.92 140.10 95.36 138.84 C 91.01 146.35 86.07 153.71 79.30 159.25 C 75.32 162.21 68.67 161.15 66.78 156.23 C 64.83 152.51 68.40 149.04 71.34 147.27 Z" />
<path fill="#66813a" opacity="1.00" d=" M 193.98 144.13 C 198.99 148.08 203.05 153.08 206.48 158.43 C 211.05 164.94 214.89 172.06 217.14 179.72 C 218.59 185.17 218.96 191.60 215.31 196.29 C 213.00 199.43 207.99 200.50 204.93 197.84 C 202.09 195.47 200.59 191.89 199.51 188.44 C 194.92 174.09 197.21 158.72 193.98 144.13 Z" />
<path fill="#66813a" opacity="1.00" d=" M 84.58 189.23 C 83.87 183.77 88.37 180.11 92.23 177.19 C 91.88 181.09 91.91 185.34 89.60 188.70 C 88.35 190.37 86.25 189.45 84.58 189.23 Z" />
</g>
<g id="#f1be48ff">
<path fill="#f1be48" opacity="1.00" d=" M 133.69 50.49 C 136.40 46.50 142.25 46.76 145.99 49.05 C 151.22 51.97 153.04 58.25 153.77 63.81 C 155.44 79.60 154.18 95.49 154.64 111.33 C 157.25 96.96 160.51 82.41 167.53 69.48 C 170.49 64.41 173.57 59.02 178.59 55.73 C 184.12 52.03 192.45 54.27 195.59 60.06 C 198.68 67.23 198.87 75.24 198.50 82.92 C 196.89 108.37 192.16 133.51 190.92 158.99 C 189.86 174.91 190.41 191.14 194.81 206.58 C 197.69 204.71 199.68 201.90 201.85 199.31 C 203.37 199.68 204.90 200.07 206.43 200.45 C 205.13 204.09 204.69 208.97 200.68 210.75 C 193.90 213.14 185.90 209.97 181.93 204.11 C 176.70 195.63 174.66 185.66 173.80 175.85 C 171.70 150.84 175.41 125.86 179.35 101.22 C 181.39 87.64 184.15 74.07 184.00 60.27 C 180.96 63.22 178.05 66.36 175.87 70.02 C 169.01 81.71 165.04 94.84 162.35 108.05 C 157.62 131.49 157.62 155.52 158.00 179.32 C 154.13 179.15 149.58 179.42 146.77 176.22 C 141.98 170.99 140.93 163.59 139.68 156.88 C 133.96 123.37 138.50 89.37 138.99 55.66 C 130.25 69.90 126.31 86.51 124.98 103.03 C 121.79 131.28 123.26 159.86 127.02 187.99 C 128.15 195.49 129.22 203.04 129.28 210.64 C 125.50 210.24 121.21 209.69 118.63 206.56 C 108.29 192.71 103.77 175.67 100.06 159.06 C 95.69 136.01 93.76 112.45 94.81 89.00 C 95.14 81.53 96.06 74.08 97.74 66.79 C 98.45 63.76 99.96 60.91 102.65 59.21 C 105.90 59.47 109.69 60.73 110.36 64.39 C 112.14 72.80 111.21 81.48 111.56 90.02 C 111.69 115.99 113.18 142.09 118.72 167.53 C 117.10 138.34 115.99 108.73 121.95 79.92 C 124.03 69.52 127.40 59.15 133.69 50.49 Z" />
<path fill="#f1be48" opacity="1.00" d=" M 81.27 84.41 C 83.52 83.50 86.09 84.42 87.41 86.42 C 91.44 91.71 91.66 98.66 92.10 105.02 C 92.25 112.46 92.68 119.89 93.18 127.31 C 86.19 117.94 79.15 108.15 76.15 96.67 C 76.14 96.40 76.12 95.86 76.11 95.59 C 75.73 91.38 77.05 86.24 81.27 84.41 Z" />
<path fill="#f1be48" opacity="1.00" d=" M 69.14 106.17 C 75.18 105.95 79.44 110.85 82.49 115.44 C 86.37 121.31 89.75 127.54 94.48 132.81 C 84.77 130.08 73.94 126.51 68.43 117.37 C 66.09 113.96 66.12 109.17 69.14 106.17 Z" />
<path fill="#f1be48" opacity="1.00" d=" M 194.38 133.70 C 207.36 133.25 218.18 124.43 231.07 123.68 C 236.27 123.36 242.60 124.81 244.90 130.05 C 246.55 133.59 247.18 138.95 243.56 141.47 C 239.11 143.91 233.74 143.17 228.90 142.73 C 217.07 141.28 205.29 138.62 194.38 133.70 Z" />
<path fill="#f1be48" opacity="1.00" d=" M 61.73 143.43 C 66.16 141.18 71.23 141.96 75.81 143.25 C 73.00 144.76 70.04 145.94 67.03 147.01 C 65.21 145.89 63.43 144.71 61.73 143.43 Z" />
<path fill="#f1be48" opacity="1.00" d=" M 69.42 165.33 C 72.97 163.98 76.51 162.63 80.11 161.42 C 78.44 164.82 76.58 168.54 72.74 169.89 C 71.64 168.36 70.54 166.84 69.42 165.33 Z" />
</g>
<g id="#0077c8ff">
<path fill="#0077c8" opacity="1.00" d=" M 204.50 60.50 C 208.03 57.97 211.99 61.58 213.28 64.85 C 210.07 69.42 205.87 73.12 202.09 77.19 C 201.49 71.73 199.36 64.42 204.50 60.50 Z" />
<path fill="#0077c8" opacity="1.00" d=" M 223.33 93.27 C 225.34 90.02 228.01 87.08 231.76 85.87 C 233.23 86.92 235.00 87.98 235.03 90.03 C 232.10 93.28 227.29 92.81 223.33 93.27 Z" />
<path fill="#0077c8" opacity="1.00" d=" M 204.38 109.65 C 205.98 109.90 207.34 110.67 208.36 111.94 C 206.25 116.26 203.04 120.37 198.54 122.34 C 199.26 117.66 200.75 112.93 204.38 109.65 Z" />
<path fill="#0077c8" opacity="1.00" d=" M 63.58 131.51 C 65.12 128.52 68.73 127.06 71.98 127.62 C 80.17 128.62 87.62 132.39 95.43 134.79 C 91.35 138.90 85.44 139.93 79.99 141.01 C 75.08 141.91 69.46 141.86 65.29 138.76 C 63.41 136.99 61.94 133.91 63.58 131.51 Z" />
<path fill="#0077c8" opacity="1.00" d=" M 94.85 142.87 C 95.98 154.06 95.24 165.84 90.01 175.99 C 88.06 179.36 84.43 182.94 80.18 181.67 C 76.38 180.23 76.42 175.39 77.34 172.10 C 80.22 160.74 90.32 153.40 94.85 142.87 Z" />
<path fill="#0077c8" opacity="1.00" d=" M 97.52 168.93 C 100.97 174.65 103.47 180.89 105.69 187.17 C 107.17 191.21 107.51 195.55 106.84 199.79 C 104.50 201.95 100.89 202.67 98.21 200.69 C 95.09 199.37 94.30 195.86 93.68 192.88 C 92.33 184.74 94.52 176.46 97.52 168.93 Z" />
</g>
<g id="#bf9bdeff">
<path fill="#bf9bde" opacity="1.00" d=" M 86.76 71.67 C 87.84 68.41 91.52 67.72 94.36 66.74 C 94.32 73.87 93.60 81.00 91.65 87.87 C 87.81 83.60 83.75 77.51 86.76 71.67 Z" />
<path fill="#bf9bde" opacity="1.00" d=" M 69.54 98.22 C 70.36 96.70 71.16 95.18 71.96 93.65 C 73.34 94.30 74.72 94.95 76.11 95.59 C 76.12 95.86 76.14 96.40 76.15 96.67 C 76.25 100.01 76.12 103.36 76.01 106.70 C 73.13 104.49 70.48 101.84 69.54 98.22 Z" />
<path fill="#bf9bde" opacity="1.00" d=" M 227.89 121.53 C 231.21 118.00 234.98 114.13 240.02 113.48 C 242.93 113.67 244.70 116.46 246.15 118.68 C 240.71 122.21 234.07 121.76 227.89 121.53 Z" />
<path fill="#bf9bde" opacity="1.00" d=" M 193.85 137.92 C 206.69 140.37 219.46 145.74 228.50 155.45 C 232.31 159.27 235.15 164.52 234.82 170.05 C 234.22 173.22 232.26 176.56 229.01 177.56 C 226.21 177.87 223.20 176.92 221.25 174.85 C 215.19 168.82 211.92 160.78 207.28 153.75 C 203.51 147.89 198.06 143.43 193.85 137.92 Z" />
<path fill="#bf9bde" opacity="1.00" d=" M 221.72 145.02 C 228.21 144.07 235.59 144.66 240.53 149.45 C 244.35 152.68 243.63 160.18 238.21 161.23 C 231.69 156.94 227.08 150.55 221.72 145.02 Z" />
<path fill="#bf9bde" opacity="1.00" d=" M 218.99 176.13 C 222.28 178.47 227.58 181.06 226.29 185.99 C 225.77 188.99 222.65 189.85 220.13 190.46 C 219.53 185.70 219.14 180.92 218.99 176.13 Z" />
</g>
</svg>
