<?xml version="1.0" encoding="UTF-8" ?>
<!DOCTYPE svg PUBLIC "-//W3C//DTD SVG 1.1//EN" "http://www.w3.org/Graphics/SVG/1.1/DTD/svg11.dtd">
<svg width="799pt" height="247pt" viewBox="0 0 799 247" version="1.1" xmlns="http://www.w3.org/2000/svg">
<g id="#ffffffff">
<path fill="#ffffff" opacity="1.00" d=" M 106.38 26.20 C 128.79 24.34 151.97 30.55 170.25 43.73 C 187.99 56.32 201.54 74.87 207.42 95.88 C 210.75 108.04 212.38 120.89 210.66 133.45 C 208.67 154.65 198.80 174.81 184.23 190.22 C 170.98 203.93 153.76 213.86 135.10 217.94 C 113.90 222.96 91.10 219.90 71.62 210.31 C 38.24 194.56 15.37 158.09 17.24 121.02 C 16.82 101.14 24.22 81.72 35.69 65.71 C 52.14 43.21 78.50 28.19 106.38 26.20 M 94.46 45.47 C 85.93 57.17 83.32 71.88 81.50 85.92 C 78.19 108.83 79.09 132.09 80.64 155.11 C 74.14 127.92 73.68 99.78 73.54 71.96 C 73.42 67.19 73.71 62.29 72.29 57.68 C 71.28 54.02 65.80 52.08 63.18 55.16 C 60.55 58.68 60.05 63.21 59.28 67.41 C 57.01 82.18 57.39 97.21 58.19 112.08 C 59.40 129.89 62.15 147.64 67.11 164.80 C 69.93 174.48 73.93 183.97 79.95 192.12 C 82.31 195.55 86.64 196.21 90.44 196.81 C 90.44 186.79 88.33 176.95 87.27 167.02 C 86.24 158.37 85.40 149.70 85.28 140.99 C 84.23 130.69 84.43 120.31 85.28 110.01 C 86.21 89.66 88.30 68.25 99.51 50.65 C 99.86 62.11 98.64 73.52 98.40 84.97 C 97.10 106.05 96.98 127.39 100.78 148.24 C 102.03 153.95 103.02 160.34 107.46 164.57 C 110.12 167.26 114.17 166.67 117.61 166.96 C 117.60 157.31 117.44 147.65 117.63 138.00 C 118.77 114.23 121.24 89.71 132.11 68.15 C 134.52 63.02 137.98 58.46 142.14 54.62 C 142.38 64.78 140.60 74.84 139.12 84.85 C 135.88 106.78 131.75 128.74 132.15 151.00 C 132.17 164.05 133.12 177.74 139.62 189.37 C 143.03 195.58 150.93 199.05 157.75 196.90 C 161.70 195.19 162.27 190.39 163.46 186.78 C 161.97 186.64 160.47 186.50 158.98 186.38 C 157.01 188.64 154.94 190.81 152.74 192.85 C 146.82 174.08 148.21 154.09 149.77 134.77 C 151.59 115.83 154.43 97.00 155.84 78.03 C 156.78 70.69 156.27 63.11 153.97 56.06 C 152.02 49.61 143.64 46.38 137.84 49.75 C 133.23 52.44 130.25 57.09 127.56 61.56 C 120.20 73.90 117.30 88.19 114.63 102.13 C 114.04 87.46 115.38 72.72 113.73 58.10 C 112.98 52.49 111.09 45.91 105.45 43.41 C 101.85 41.71 96.85 41.86 94.46 45.47 M 158.74 59.02 C 158.10 62.73 158.70 66.50 159.25 70.19 C 163.34 66.75 166.93 62.77 170.23 58.58 C 168.57 56.55 166.92 53.92 164.03 53.71 C 161.32 53.99 159.11 56.37 158.74 59.02 M 49.89 65.93 C 47.83 71.31 51.36 76.49 54.78 80.36 C 56.72 73.92 57.40 67.20 57.47 60.50 C 54.59 61.65 50.87 62.53 49.89 65.93 M 165.53 67.50 C 158.13 76.68 158.81 89.05 159.48 100.12 C 164.81 95.20 170.38 90.57 175.95 85.93 C 179.85 82.31 183.89 76.84 181.90 71.27 C 179.80 64.83 170.01 61.85 165.53 67.50 M 43.39 78.37 C 40.77 80.40 39.98 83.89 40.15 87.05 C 38.70 86.77 37.25 86.47 35.80 86.18 C 35.24 87.99 34.25 89.77 34.41 91.71 C 35.36 94.46 37.79 96.31 39.76 98.32 C 40.03 95.45 40.30 92.58 40.26 89.69 C 43.50 99.82 49.44 108.85 55.92 117.19 C 55.82 110.11 55.46 103.03 55.28 95.95 C 54.80 90.21 54.35 83.99 50.86 79.17 C 49.27 76.63 45.51 76.38 43.39 78.37 M 179.59 85.46 C 183.70 85.61 188.14 85.20 191.17 82.06 C 190.07 81.03 189.10 79.78 187.67 79.20 C 183.83 79.06 181.57 82.73 179.59 85.46 M 172.99 92.97 C 167.82 99.21 165.40 107.15 160.76 113.74 C 158.87 116.56 156.48 118.98 154.27 121.54 C 158.95 120.99 163.66 120.11 167.94 118.05 C 175.63 114.43 183.26 110.35 189.52 104.52 C 192.46 101.62 195.51 97.78 194.47 93.36 C 193.87 89.27 189.76 86.91 185.96 86.60 C 180.87 86.24 176.23 89.31 172.99 92.97 M 31.97 99.95 C 30.33 103.53 31.87 107.76 34.30 110.62 C 39.81 117.34 48.28 120.63 56.53 122.54 C 53.61 118.09 50.65 113.68 47.88 109.14 C 45.27 105.24 42.56 101.00 38.24 98.82 C 36.19 98.01 33.11 97.52 31.97 99.95 M 161.17 101.32 C 158.18 104.67 156.38 108.91 156.23 113.42 C 160.05 110.50 164.90 107.19 164.89 101.83 C 163.65 101.65 162.41 101.49 161.17 101.32 M 184.31 112.21 C 190.15 112.89 196.46 112.90 201.42 109.30 C 199.67 107.70 198.12 105.68 195.83 104.84 C 190.89 104.72 187.29 108.79 184.31 112.21 M 28.94 108.33 C 28.61 110.49 28.35 112.67 28.20 114.85 C 31.20 115.73 34.30 116.20 37.41 116.45 C 35.40 113.00 32.47 110.19 28.94 108.33 M 171.59 118.49 C 165.53 121.02 159.24 122.99 152.74 123.98 C 159.78 127.46 167.42 129.45 175.08 131.02 C 181.60 132.24 188.26 133.35 194.91 132.60 C 197.00 132.28 199.46 131.48 200.32 129.34 C 202.61 123.94 199.47 116.78 193.69 115.22 C 186.21 113.17 178.51 115.64 171.59 118.49 M 29.96 119.86 C 28.44 121.34 26.92 123.60 27.91 125.78 C 29.96 130.78 36.22 131.82 41.01 131.30 C 47.08 130.46 53.73 129.41 58.33 124.97 C 51.61 122.63 45.04 119.63 37.99 118.45 C 35.32 118.27 32.00 117.67 29.96 119.86 M 151.90 128.03 C 155.94 133.32 160.96 137.81 164.59 143.41 C 169.01 149.97 171.94 157.68 177.87 163.11 C 180.40 165.60 185.04 166.76 187.62 163.69 C 192.24 159.48 190.45 152.30 187.17 147.84 C 178.85 136.61 165.28 130.64 151.90 128.03 M 39.65 134.67 C 35.95 136.42 31.59 138.65 30.63 143.03 C 31.22 148.50 37.94 151.58 42.47 148.51 C 49.39 143.49 53.99 136.03 58.34 128.82 C 51.85 129.79 45.60 131.94 39.65 134.67 M 26.49 133.09 C 28.00 134.06 29.42 135.29 31.17 135.80 C 34.23 136.02 36.97 134.31 39.63 133.05 C 35.35 131.54 30.74 131.36 26.49 133.09 M 42.31 157.31 C 41.07 160.62 39.82 164.86 42.11 167.98 C 45.13 171.55 50.41 168.61 52.36 165.32 C 58.23 155.77 58.92 144.03 57.91 133.13 C 53.42 141.66 45.94 148.30 42.31 157.31 M 152.17 134.05 C 152.38 137.77 152.98 141.45 153.36 145.16 C 153.91 154.94 153.74 164.93 156.56 174.41 C 157.47 178.02 158.94 181.65 161.68 184.27 C 163.64 186.34 166.87 186.15 169.38 185.39 C 174.47 182.14 175.17 175.41 174.17 169.96 C 172.31 160.50 167.05 152.17 161.54 144.42 C 158.90 140.56 155.61 137.20 152.17 134.05 M 178.47 134.67 C 183.10 140.16 187.42 146.53 194.03 149.78 C 198.73 148.65 199.03 142.03 195.95 139.05 C 191.56 134.19 184.50 134.04 178.47 134.67 M 33.93 153.87 C 34.98 155.32 36.03 156.78 37.09 158.23 C 40.07 156.44 42.33 153.77 43.69 150.58 C 40.36 151.45 37.12 152.61 33.93 153.87 M 56.56 178.74 C 57.16 181.81 57.71 185.59 60.78 187.20 C 63.31 189.11 67.78 189.04 69.19 185.81 C 69.99 181.90 69.37 177.84 68.06 174.12 C 66.00 168.29 63.57 162.57 60.55 157.17 C 57.64 163.91 55.75 171.36 56.56 178.74 M 176.36 177.42 C 178.49 176.67 181.54 176.45 182.12 173.77 C 183.75 169.16 178.68 166.50 175.63 164.27 C 175.36 168.67 175.66 173.08 176.36 177.42 M 48.20 176.51 C 49.70 176.59 51.19 176.65 52.68 176.69 C 54.44 173.11 55.38 169.19 55.35 165.20 C 51.48 167.79 47.82 171.46 48.20 176.51 Z" />
</g>
<g id="#66813aff">
<path fill="#66813a" opacity="1.00" d=" M 100.40 18.62 C 134.67 13.76 170.73 27.51 193.32 53.68 C 211.37 74.09 220.83 101.81 219.29 128.99 C 217.77 149.99 210.57 170.85 197.41 187.44 C 181.42 208.25 157.39 222.86 131.40 226.92 C 112.55 230.09 92.88 227.94 75.10 220.94 C 55.07 212.74 37.43 198.52 25.80 180.20 C 12.30 159.63 6.68 134.09 9.79 109.73 C 11.92 93.93 17.24 78.44 26.22 65.20 C 42.63 39.90 70.56 22.59 100.40 18.62 M 106.38 26.20 C 78.50 28.19 52.14 43.21 35.69 65.71 C 24.22 81.72 16.82 101.14 17.24 121.02 C 15.37 158.09 38.24 194.56 71.62 210.31 C 91.10 219.90 113.90 222.96 135.10 217.94 C 153.76 213.86 170.98 203.93 184.23 190.22 C 198.80 174.81 208.67 154.65 210.66 133.45 C 212.38 120.89 210.75 108.04 207.42 95.88 C 201.54 74.87 187.99 56.32 170.25 43.73 C 151.97 30.55 128.79 24.34 106.38 26.20 Z" />
<path fill="#66813a" opacity="1.00" d=" M 394.56 31.72 C 402.25 30.92 410.00 31.61 417.72 31.75 C 418.52 34.77 418.70 37.90 418.74 41.01 C 418.67 101.02 418.81 161.03 418.63 221.03 C 418.62 223.52 418.28 226.00 417.87 228.45 C 408.56 230.26 398.82 229.98 389.50 228.38 C 389.25 194.59 389.34 160.79 389.33 127.00 C 389.31 122.43 389.48 117.86 389.05 113.30 C 383.56 124.62 379.46 136.55 374.18 147.96 C 366.50 166.64 358.41 185.14 350.57 203.75 C 348.58 208.25 347.05 213.05 343.98 216.98 C 342.57 218.84 340.46 220.37 338.05 220.41 C 333.08 220.64 328.05 220.95 323.12 220.21 C 317.67 218.59 316.35 212.28 314.52 207.63 C 302.70 177.95 292.44 147.68 280.61 118.01 C 278.76 113.75 277.46 109.22 274.94 105.27 C 274.61 131.84 274.62 158.42 274.19 185.00 C 273.22 199.35 274.23 213.75 273.58 228.11 C 264.22 230.25 254.42 229.70 244.94 228.74 C 244.24 211.84 244.64 194.92 244.79 178.01 C 245.10 160.67 244.52 143.32 245.24 125.99 C 245.17 104.66 245.50 83.34 245.66 62.01 C 245.67 52.33 246.45 42.68 246.29 33.00 C 248.38 32.09 250.61 31.39 252.92 31.45 C 261.58 31.47 270.27 31.08 278.91 31.74 C 282.00 34.27 282.40 38.63 284.16 42.03 C 300.13 84.93 316.24 127.78 332.04 170.74 C 340.53 153.56 347.05 135.50 354.68 117.94 C 364.65 93.58 374.86 69.31 384.87 44.96 C 387.04 40.04 388.77 33.43 394.56 31.72 Z" />
<path fill="#66813a" opacity="1.00" d=" M 165.53 67.50 C 170.01 61.85 179.80 64.83 181.90 71.27 C 183.89 76.84 179.85 82.31 175.95 85.93 C 170.38 90.57 164.81 95.20 159.48 100.12 C 158.81 89.05 158.13 76.68 165.53 67.50 Z" />
<path fill="#66813a" opacity="1.00" d=" M 172.99 92.97 C 176.23 89.31 180.87 86.24 185.96 86.60 C 189.76 86.91 193.87 89.27 194.47 93.36 C 195.51 97.78 192.46 101.62 189.52 104.52 C 183.26 110.35 175.63 114.43 167.94 118.05 C 163.66 120.11 158.95 120.99 154.27 121.54 C 156.48 118.98 158.87 116.56 160.76 113.74 C 165.40 107.15 167.82 99.21 172.99 92.97 Z" />
<path fill="#66813a" opacity="1.00" d=" M 28.94 108.33 C 32.47 110.19 35.40 113.00 37.41 116.45 C 34.30 116.20 31.20 115.73 28.20 114.85 C 28.35 112.67 28.61 110.49 28.94 108.33 Z" />
<path fill="#66813a" opacity="1.00" d=" M 39.65 134.67 C 45.60 131.94 51.85 129.79 58.34 128.82 C 53.99 136.03 49.39 143.49 42.47 148.51 C 37.94 151.58 31.22 148.50 30.63 143.03 C 31.59 138.65 35.95 136.42 39.65 134.67 Z" />
<path fill="#66813a" opacity="1.00" d=" M 152.17 134.05 C 155.61 137.20 158.90 140.56 161.54 144.42 C 167.05 152.17 172.31 160.50 174.17 169.96 C 175.17 175.41 174.47 182.14 169.38 185.39 C 166.87 186.15 163.64 186.34 161.68 184.27 C 158.94 181.65 157.47 178.02 156.56 174.41 C 153.74 164.93 153.91 154.94 153.36 145.16 C 152.98 141.45 152.38 137.77 152.17 134.05 Z" />
<path fill="#66813a" opacity="1.00" d=" M 48.20 176.51 C 47.82 171.46 51.48 167.79 55.35 165.20 C 55.38 169.19 54.44 173.11 52.68 176.69 C 51.19 176.65 49.70 176.59 48.20 176.51 Z" />
</g>
<g id="#f1be48ff">
<path fill="#f1be48" opacity="1.00" d=" M 500.81 22.91 C 508.48 19.88 517.31 19.99 524.95 23.08 C 530.31 25.30 534.58 29.35 538.55 33.47 C 547.26 43.05 553.14 54.86 556.97 67.17 C 564.03 86.18 567.91 106.19 570.82 126.20 C 572.48 143.12 574.74 160.00 575.07 177.02 C 575.40 190.04 575.72 203.08 575.22 216.10 C 574.92 223.21 575.67 230.53 573.33 237.39 C 564.11 237.12 554.41 238.11 545.85 233.92 C 544.91 214.79 547.04 195.63 545.55 176.52 C 529.71 176.42 513.81 175.82 498.04 177.46 C 491.24 178.08 484.24 176.79 477.58 178.54 C 476.93 179.61 476.68 180.85 476.60 182.08 C 475.91 192.04 475.83 202.02 475.92 212.00 C 475.90 217.79 476.38 223.73 474.53 229.31 C 465.74 230.80 456.83 230.59 447.96 230.86 C 446.69 222.63 446.09 214.32 445.86 206.00 C 446.87 188.60 447.14 171.13 449.31 153.81 C 450.22 145.50 450.76 137.12 452.42 128.91 C 453.73 122.41 454.21 115.77 455.79 109.32 C 460.60 87.89 466.11 66.21 476.94 46.91 C 482.58 37.04 490.22 27.67 500.81 22.91 M 494.28 80.23 C 487.48 98.94 483.99 118.61 480.59 138.16 C 480.23 141.21 480.24 144.29 480.16 147.36 C 488.42 148.13 496.71 147.56 504.99 147.42 C 517.61 147.41 530.23 146.74 542.82 145.88 C 542.09 137.45 541.83 128.95 539.81 120.70 C 537.50 103.90 532.97 87.50 527.39 71.51 C 524.44 63.06 519.09 55.66 512.81 49.36 C 503.60 57.50 498.36 68.88 494.28 80.23 Z" />
<path fill="#f1be48" opacity="1.00" d=" M 94.46 45.47 C 96.85 41.86 101.85 41.71 105.45 43.41 C 111.09 45.91 112.98 52.49 113.73 58.10 C 115.38 72.72 114.04 87.46 114.63 102.13 C 117.30 88.19 120.20 73.90 127.56 61.56 C 130.25 57.09 133.23 52.44 137.84 49.75 C 143.64 46.38 152.02 49.61 153.97 56.06 C 156.27 63.11 156.78 70.69 155.84 78.03 C 154.43 97.00 151.59 115.83 149.77 134.77 C 148.21 154.09 146.82 174.08 152.74 192.85 C 154.94 190.81 157.01 188.64 158.98 186.38 C 160.47 186.50 161.97 186.64 163.46 186.78 C 162.27 190.39 161.70 195.19 157.75 196.90 C 150.93 199.05 143.03 195.58 139.62 189.37 C 133.12 177.74 132.17 164.05 132.15 151.00 C 131.75 128.74 135.88 106.78 139.12 84.85 C 140.60 74.84 142.38 64.78 142.14 54.62 C 137.98 58.46 134.52 63.02 132.11 68.15 C 121.24 89.71 118.77 114.23 117.63 138.00 C 117.44 147.65 117.60 157.31 117.61 166.96 C 114.17 166.67 110.12 167.26 107.46 164.57 C 103.02 160.34 102.03 153.95 100.78 148.24 C 96.98 127.39 97.10 106.05 98.40 84.97 C 98.64 73.52 99.86 62.11 99.51 50.65 C 88.30 68.25 86.21 89.66 85.28 110.01 C 84.43 120.31 84.23 130.69 85.28 140.99 C 85.40 149.70 86.24 158.37 87.27 167.02 C 88.33 176.95 90.44 186.79 90.44 196.81 C 86.64 196.21 82.31 195.55 79.95 192.12 C 73.93 183.97 69.93 174.48 67.11 164.80 C 62.15 147.64 59.40 129.89 58.19 112.08 C 57.39 97.21 57.01 82.18 59.28 67.41 C 60.05 63.21 60.55 58.68 63.18 55.16 C 65.80 52.08 71.28 54.02 72.29 57.68 C 73.71 62.29 73.42 67.19 73.54 71.96 C 73.68 99.78 74.14 127.92 80.64 155.11 C 79.09 132.09 78.19 108.83 81.50 85.92 C 83.32 71.88 85.93 57.17 94.46 45.47 Z" />
<path fill="#f1be48" opacity="1.00" d=" M 43.39 78.37 C 45.51 76.38 49.27 76.63 50.86 79.17 C 54.35 83.99 54.80 90.21 55.28 95.95 C 55.46 103.03 55.82 110.11 55.92 117.19 C 49.44 108.85 43.50 99.82 40.26 89.69 C 40.23 89.03 40.18 87.71 40.15 87.05 C 39.98 83.89 40.77 80.40 43.39 78.37 Z" />
<path fill="#f1be48" opacity="1.00" d=" M 31.97 99.95 C 33.11 97.52 36.19 98.01 38.24 98.82 C 42.56 101.00 45.27 105.24 47.88 109.14 C 50.65 113.68 53.61 118.09 56.53 122.54 C 48.28 120.63 39.81 117.34 34.30 110.62 C 31.87 107.76 30.33 103.53 31.97 99.95 Z" />
<path fill="#f1be48" opacity="1.00" d=" M 171.59 118.49 C 178.51 115.64 186.21 113.17 193.69 115.22 C 199.47 116.78 202.61 123.94 200.32 129.34 C 199.46 131.48 197.00 132.28 194.91 132.60 C 188.26 133.35 181.60 132.24 175.08 131.02 C 167.42 129.45 159.78 127.46 152.74 123.98 C 159.24 122.99 165.53 121.02 171.59 118.49 Z" />
<path fill="#f1be48" opacity="1.00" d=" M 26.49 133.09 C 30.74 131.36 35.35 131.54 39.63 133.05 C 36.97 134.31 34.23 136.02 31.17 135.80 C 29.42 135.29 28.00 134.06 26.49 133.09 Z" />
<path fill="#f1be48" opacity="1.00" d=" M 33.93 153.87 C 37.12 152.61 40.36 151.45 43.69 150.58 C 42.33 153.77 40.07 156.44 37.09 158.23 C 36.03 156.78 34.98 155.32 33.93 153.87 Z" />
</g>
<g id="#bf9bdeff">
<path fill="#bf9bde" opacity="1.00" d=" M 755.49 40.94 C 755.67 38.23 755.79 33.91 759.18 33.35 C 767.28 32.29 775.50 32.81 783.61 33.53 C 787.49 44.95 784.76 57.19 784.54 68.95 C 784.25 93.63 784.67 118.32 784.21 143.00 C 784.10 168.68 783.38 194.36 783.68 220.04 C 783.54 223.38 783.93 227.05 782.11 230.03 C 773.05 232.15 763.60 231.23 754.48 230.04 C 753.90 206.04 753.83 182.04 754.43 158.04 C 754.89 134.70 754.71 111.35 754.79 88.00 C 755.45 72.33 755.46 56.63 755.49 40.94 Z" />
<path fill="#bf9bde" opacity="1.00" d=" M 49.89 65.93 C 50.87 62.53 54.59 61.65 57.47 60.50 C 57.40 67.20 56.72 73.92 54.78 80.36 C 51.36 76.49 47.83 71.31 49.89 65.93 Z" />
<path fill="#bf9bde" opacity="1.00" d=" M 35.80 86.18 C 37.25 86.47 38.70 86.77 40.15 87.05 C 40.18 87.71 40.23 89.03 40.26 89.69 C 40.30 92.58 40.03 95.45 39.76 98.32 C 37.79 96.31 35.36 94.46 34.41 91.71 C 34.25 89.77 35.24 87.99 35.80 86.18 Z" />
<path fill="#bf9bde" opacity="1.00" d=" M 184.31 112.21 C 187.29 108.79 190.89 104.72 195.83 104.84 C 198.12 105.68 199.67 107.70 201.42 109.30 C 196.46 112.90 190.15 112.89 184.31 112.21 Z" />
<path fill="#bf9bde" opacity="1.00" d=" M 151.90 128.03 C 165.28 130.64 178.85 136.61 187.17 147.84 C 190.45 152.30 192.24 159.48 187.62 163.69 C 185.04 166.76 180.40 165.60 177.87 163.11 C 171.94 157.68 169.01 149.97 164.59 143.41 C 160.96 137.81 155.94 133.32 151.90 128.03 Z" />
<path fill="#bf9bde" opacity="1.00" d=" M 178.47 134.67 C 184.50 134.04 191.56 134.19 195.95 139.05 C 199.03 142.03 198.73 148.65 194.03 149.78 C 187.42 146.53 183.10 140.16 178.47 134.67 Z" />
<path fill="#bf9bde" opacity="1.00" d=" M 176.36 177.42 C 175.66 173.08 175.36 168.67 175.63 164.27 C 178.68 166.50 183.75 169.16 182.12 173.77 C 181.54 176.45 178.49 176.67 176.36 177.42 Z" />
</g>
<g id="#0077c8ff">
<path fill="#0077c8" opacity="1.00" d=" M 596.98 35.98 C 604.85 34.23 612.95 34.32 620.95 34.78 C 622.64 35.34 625.01 35.98 625.33 38.05 C 626.31 50.05 624.30 62.00 624.57 73.99 C 624.56 85.63 624.26 97.27 624.50 108.90 C 641.32 95.98 657.71 82.52 674.33 69.34 C 682.06 63.37 689.30 56.72 697.53 51.44 C 700.72 49.96 702.50 53.87 704.32 55.76 C 709.03 60.86 712.55 66.85 716.85 72.26 C 707.00 82.38 694.34 89.32 684.84 99.78 C 683.92 103.75 686.21 107.55 687.75 111.08 C 700.07 139.81 712.52 168.47 724.80 197.22 C 729.54 208.42 734.68 219.48 738.77 230.95 C 730.38 234.98 721.95 239.26 712.89 241.58 C 708.64 236.45 706.88 229.96 704.09 224.04 C 689.25 189.33 674.30 154.66 659.12 120.10 C 656.58 121.49 654.12 123.04 651.90 124.89 C 643.47 131.80 634.83 138.44 626.60 145.58 C 624.38 147.41 622.64 149.96 622.73 152.94 C 622.21 165.28 622.51 177.65 622.15 190.00 C 620.88 206.05 622.97 222.32 620.12 238.23 C 611.05 239.05 601.95 238.35 592.88 238.06 C 590.11 231.39 591.90 223.98 592.11 217.01 C 592.78 185.34 593.05 153.67 593.76 122.01 C 594.74 106.35 594.11 90.63 594.84 74.96 C 596.68 62.04 594.08 48.77 596.98 35.98 Z" />
<path fill="#0077c8" opacity="1.00" d=" M 158.74 59.02 C 159.11 56.37 161.32 53.99 164.03 53.71 C 166.92 53.92 168.57 56.55 170.23 58.58 C 166.93 62.77 163.34 66.75 159.25 70.19 C 158.70 66.50 158.10 62.73 158.74 59.02 Z" />
<path fill="#0077c8" opacity="1.00" d=" M 179.59 85.46 C 181.57 82.73 183.83 79.06 187.67 79.20 C 189.10 79.78 190.07 81.03 191.17 82.06 C 188.14 85.20 183.70 85.61 179.59 85.46 Z" />
<path fill="#0077c8" opacity="1.00" d=" M 161.17 101.32 C 162.41 101.49 163.65 101.65 164.89 101.83 C 164.90 107.19 160.05 110.50 156.23 113.42 C 156.38 108.91 158.18 104.67 161.17 101.32 Z" />
<path fill="#0077c8" opacity="1.00" d=" M 29.96 119.86 C 32.00 117.67 35.32 118.27 37.99 118.45 C 45.04 119.63 51.61 122.63 58.33 124.97 C 53.73 129.41 47.08 130.46 41.01 131.30 C 36.22 131.82 29.96 130.78 27.91 125.78 C 26.92 123.60 28.44 121.34 29.96 119.86 Z" />
<path fill="#0077c8" opacity="1.00" d=" M 42.31 157.31 C 45.94 148.30 53.42 141.66 57.91 133.13 C 58.92 144.03 58.23 155.77 52.36 165.32 C 50.41 168.61 45.13 171.55 42.11 167.98 C 39.82 164.86 41.07 160.62 42.31 157.31 Z" />
<path fill="#0077c8" opacity="1.00" d=" M 56.56 178.74 C 55.75 171.36 57.64 163.91 60.55 157.17 C 63.57 162.57 66.00 168.29 68.06 174.12 C 69.37 177.84 69.99 181.90 69.19 185.81 C 67.78 189.04 63.31 189.11 60.78 187.20 C 57.71 185.59 57.16 181.81 56.56 178.74 Z" />
</g>
</svg>
